<svg xmlns="http://www.w3.org/2000/svg" width="20" height="16.304" viewBox="0 0 20 16.304">
  <g id="fp" transform="translate(0)">
    <path id="패스_222" data-name="패스 222" d="M-145.891,500.957l9.268-4.852a.731.731,0,0,1,.678,0l9.268,4.852a.734.734,0,0,1,0,1.3l-9.268,4.853a.733.733,0,0,1-.678,0l-9.268-4.853a.734.734,0,0,1,0-1.3Z" transform="translate(146.284 -490.889)" fill="#c9c9c9"/>
    <path id="패스_223" data-name="패스 223" d="M-145.891,479.734l9.268-4.853a.733.733,0,0,1,.678,0l9.268,4.853a.734.734,0,0,1,0,1.3l-9.268,4.853a.733.733,0,0,1-.678,0l-9.268-4.853a.734.734,0,0,1,0-1.3Z" transform="translate(146.284 -474.798)" fill="#848484"/>
  </g>
</svg>
