<svg xmlns="http://www.w3.org/2000/svg" xmlns:xlink="http://www.w3.org/1999/xlink" width="30" height="30" viewBox="0 0 30 30">
  <defs>
    <clipPath id="clip-path">
      <rect id="사각형_9150" data-name="사각형 9150" width="30" height="30" fill="#1b64b4"/>
    </clipPath>
  </defs>
  <g id="icon" transform="translate(0 1)">
    <g id="그룹_3641" data-name="그룹 3641" transform="translate(0 -1)" clip-path="url(#clip-path)">
      <path id="패스_63770" data-name="패스 63770" d="M15,30A15,15,0,1,1,30,14.968,15.034,15.034,0,0,1,15,30M15,2.768a12.232,12.232,0,1,0,12.238,12.2A12.233,12.233,0,0,0,15,2.768" transform="translate(0 0)" fill="#1b64b4"/>
      <path id="합치기_2" data-name="합치기 2" d="M-7556.917-3083.832a1.508,1.508,0,0,1-.291-.3l-4.8-4.632a1.378,1.378,0,0,1-.036-1.953,1.378,1.378,0,0,1,1.953-.032l3.8,3.669,6.5-8.314a1.5,1.5,0,0,1,2.1-.258,1.5,1.5,0,0,1,.26,2.1l-7.389,9.458a1.5,1.5,0,0,1-1.182.576A1.5,1.5,0,0,1-7556.917-3083.832Z" transform="translate(7570.6 3104.712)" fill="#1b64b4" stroke="rgba(0,0,0,0)" stroke-miterlimit="10" stroke-width="1"/>
    </g>
  </g>
</svg>
